HIERARCHY
ROOT Hips
{
	OFFSET 0.000000 0.000000 0.000000
	CHANNELS 6 Xposition Yposition Zposition Xrotation Yrotation Zrotation
	JOINT LeftUpLeg_virtual
	{
		OFFSET 0.000000 0.000000 0.000000
		CHANNELS 3 Xrotation Yrotation Zrotation
		JOINT LeftUpLeg
		{
			OFFSET 10.205400 -3.823500 0.155100
			CHANNELS 3 Xrotation Yrotation Zrotation
			JOINT LeftLeg
			{
				OFFSET 0.708757 -12.982077 0.567790
				CHANNELS 3 Xrotation Yrotation Zrotation
				JOINT LeftFoot
				{
					OFFSET -0.708756 -10.717838 -2.184338
					CHANNELS 3 Xrotation Yrotation Zrotation
					JOINT LeftToeBase
					{
						OFFSET 0.108149 -7.191104 7.560241
						CHANNELS 3 Xrotation Yrotation Zrotation
						JOINT LeftToe_End
						{
							OFFSET 0.070230 0.081724 4.490308
							CHANNELS 3 Xrotation Yrotation Zrotation
							End Site
							{
								OFFSET 0 0 0
							}
						}
					}
				}
			}
		}
	}
	JOINT RightUpLeg_virtual
	{
		OFFSET 0.000000 0.000000 0.000000
		CHANNELS 3 Xrotation Yrotation Zrotation
		JOINT RightUpLeg
		{
			OFFSET -10.205400 -3.823500 0.005500
			CHANNELS 3 Xrotation Yrotation Zrotation
			JOINT RightLeg
			{
				OFFSET -0.708756 -12.982134 0.610632
				CHANNELS 3 Xrotation Yrotation Zrotation
				JOINT RightFoot
				{
					OFFSET 0.708754 -10.717769 -1.945823
					CHANNELS 3 Xrotation Yrotation Zrotation
					JOINT RightToeBase
					{
						OFFSET -0.108140 -7.191069 7.372968
						CHANNELS 3 Xrotation Yrotation Zrotation
						JOINT RightToe_End
						{
							OFFSET -0.070227 0.081735 4.479403
							CHANNELS 3 Xrotation Yrotation Zrotation
							End Site
							{
								OFFSET 0 0 0
							}
						}
					}
				}
			}
		}
	}
	JOINT Spine_virtual
	{
		OFFSET 0.000000 0.000000 0.000000
		CHANNELS 3 Xrotation Yrotation Zrotation
		JOINT Spine
		{
			OFFSET 0.000000 6.876099 0.125700
			CHANNELS 3 Xrotation Yrotation Zrotation
			JOINT Spine1
			{
				OFFSET 0.000000 5.730043 0.104720
				CHANNELS 3 Xrotation Yrotation Zrotation
				JOINT Spine1_split
				{
					OFFSET 0.000000 5.730043 0.104720
					CHANNELS 3 Xrotation Yrotation Zrotation
					JOINT Spine2
					{
						OFFSET 0.000000 5.730043 0.104720
						CHANNELS 3 Xrotation Yrotation Zrotation
						JOINT Neck_virtual
						{
							OFFSET 0.000000 0.000000 0.000000
							CHANNELS 3 Xrotation Yrotation Zrotation
							JOINT Neck
							{
								OFFSET 0.000000 10.314075 0.188496
								CHANNELS 3 Xrotation Yrotation Zrotation
								JOINT Head
								{
									OFFSET 0.000000 7.643700 -2.377400
									CHANNELS 3 Xrotation Yrotation Zrotation
									JOINT HeadTop_End
									{
										OFFSET 0.000000 43.788605 -13.619600
										CHANNELS 3 Xrotation Yrotation Zrotation
										End Site
										{
											OFFSET 0 0 0
										}
									}
								}
							}
						}
						JOINT LeftShoulder_virtual
						{
							OFFSET 0.000000 0.000000 0.000000
							CHANNELS 3 Xrotation Yrotation Zrotation
							JOINT LeftShoulder
							{
								OFFSET 2.196100 4.412489 0.087492
								CHANNELS 3 Xrotation Yrotation Zrotation
								JOINT LeftShoulder_split
								{
									OFFSET 2.196100 4.412489 0.087492
									CHANNELS 3 Xrotation Yrotation Zrotation
									JOINT LeftArm
									{
										OFFSET 8.771219 -2.981674 -0.026999
										CHANNELS 3 Xrotation Yrotation Zrotation
										JOINT LeftForeArm
										{
											OFFSET 8.512804 0.000000 -0.000000
											CHANNELS 3 Xrotation Yrotation Zrotation
											JOINT LeftHand
											{
												OFFSET 18.484802 0.000000 -0.000000
												CHANNELS 3 Xrotation Yrotation Zrotation
												End Site
												{
													OFFSET 0 0 0
												}
											}
										}
									}
								}
							}
						}
						JOINT RightShoulder_virtual
						{
							OFFSET 0.000000 0.000000 0.000000
							CHANNELS 3 Xrotation Yrotation Zrotation
							JOINT RightShoulder
							{
								OFFSET -2.196100 4.412496 0.070690
								CHANNELS 3 Xrotation Yrotation Zrotation
								JOINT RightShoulder_split
								{
									OFFSET -2.196100 4.412496 0.070690
									CHANNELS 3 Xrotation Yrotation Zrotation
									JOINT RightArm
									{
										OFFSET -8.771282 -2.981682 -0.094208
										CHANNELS 3 Xrotation Yrotation Zrotation
										JOINT RightForeArm
										{
											OFFSET -8.494598 0.000000 0.000000
											CHANNELS 3 Xrotation Yrotation Zrotation
											JOINT RightHand
											{
												OFFSET -18.483803 0.000000 0.000001
												CHANNELS 3 Xrotation Yrotation Zrotation
												End Site
												{
													OFFSET 0 0 0
												}
											}
										}
									}
								}
							}
						}
					}
				}
			}
		}
	}
}
MOTION
Frames: 10
Frame Time: 0.03333333
-0.450018 32.519352 6.541636 0.000000 0.000000 0.000000 172.278982 -60.735996 173.321774 2.195973 15.639545 19.324226 25.699341 19.927576 2.312076 -17.271663 6.821841 -33.047583 -8.788643 2.985228 -0.797196 0.000000 0.000000 0.000000 171.647667 -60.335405 172.391092 -20.985913 -18.989480 -21.034230 26.480592 -10.225761 1.754892 -3.955354 0.254578 8.594407 -4.432558 -9.106376 4.989760 0.000000 0.000000 0.000000 172.241101 -63.963096 172.287970 10.467403 0.035902 0.366220 -0.633979 -1.110988 2.435424 0.777587 -1.731763 0.197398 0.000000 0.000000 0.000000 -1.837379 -1.008299 2.780127 -3.838964 19.551700 4.346188 -0.957302 27.515998 -7.694817 0.000000 0.000000 0.000000 -2.185018 -0.735415 2.583380 1.402631 2.934052 -7.942201 2.170305 -2.847293 -2.551703 -0.989234 -10.938015 -57.011060 6.550024 -15.888210 -6.514154 0.000000 0.000000 0.000000 -2.181525 -1.046970 1.926556 2.088790 -1.018772 18.581407 -3.056524 -1.655566 -0.454317 16.441911 26.555907 45.832625 16.344844 24.167214 -5.325270 0.000000 0.000000 0.000000 
-0.449318 32.305168 5.777915 0.000000 0.000000 0.000000 173.065792 -57.013788 174.264900 5.839606 16.995321 19.670448 25.459808 22.050402 2.078728 -17.344347 7.925244 -34.741918 -9.461434 3.377055 -0.802978 0.000000 0.000000 0.000000 172.652784 -56.539568 173.556186 -23.361586 -20.046043 -19.701134 28.349969 -9.640322 1.471148 -3.276062 1.670717 7.902776 -5.118293 -9.130256 4.800429 0.000000 0.000000 0.000000 173.500424 -59.848754 173.689074 10.697036 -0.649196 0.265046 -0.563613 -1.491037 2.917297 0.864397 -1.326908 0.127622 0.000000 0.000000 0.000000 -1.865735 -1.407750 3.219939 -3.939143 17.301822 3.305526 -1.008749 23.009063 -6.319435 0.000000 0.000000 0.000000 -2.152967 -1.120402 3.093366 1.415545 3.225744 -8.820212 1.877899 -2.988189 -2.120983 0.209639 -11.296732 -57.506047 5.721467 -15.752025 -6.423982 0.000000 0.000000 0.000000 -2.076344 -1.432724 2.400865 2.080421 -1.351348 17.898145 -3.179327 -1.687178 -0.470434 15.805819 27.889898 45.742197 16.059141 23.836180 -5.558273 0.000000 0.000000 0.000000 
-0.445338 32.085354 4.947974 0.000000 0.000000 0.000000 173.777771 -53.381214 175.043979 8.187268 17.719409 20.589631 27.628769 23.065081 1.493940 -16.679882 8.047666 -35.937532 -9.126649 4.037519 -1.852655 0.000000 0.000000 0.000000 173.586963 -52.762101 174.550771 -24.769761 -21.249185 -17.643762 29.791339 -8.905354 0.967414 -3.475173 2.733251 6.434278 -5.669326 -9.079987 4.529174 0.000000 0.000000 0.000000 174.567491 -55.786629 174.718957 11.138223 -1.429066 0.160652 -0.582052 -1.886949 3.261513 0.919588 -0.898936 0.012793 0.000000 0.000000 0.000000 -1.938370 -1.824721 3.523048 -3.949591 14.743998 2.544012 -0.906491 18.249325 -5.058367 0.000000 0.000000 0.000000 -2.163865 -1.523996 3.473174 1.431810 3.345632 -9.501101 1.750189 -3.149777 -1.535024 1.779653 -11.648052 -58.129452 4.902482 -16.026716 -6.505454 0.000000 0.000000 0.000000 -2.059569 -1.835261 2.772304 2.108833 -1.626142 17.384570 -3.501344 -1.563053 -0.523977 15.295186 29.092105 45.666020 15.639506 23.476422 -5.483398 0.000000 0.000000 0.000000 
-0.430290 31.909307 4.019692 0.000000 0.000000 0.000000 174.484436 -49.910624 175.707859 8.621819 17.259733 22.134334 31.767189 22.468498 1.055395 -14.049062 6.587064 -37.214996 -9.218127 4.935040 -3.888511 0.000000 0.000000 0.000000 174.563721 -49.144130 175.443026 -25.051066 -22.366062 -14.902310 30.696837 -8.151229 0.220980 -4.470565 3.268991 4.127657 -5.803739 -8.987472 4.231220 0.000000 0.000000 0.000000 175.502503 -51.806927 175.449665 11.758283 -2.136536 0.108543 -0.720920 -2.220924 3.360599 0.952583 -0.343790 0.019164 0.000000 0.000000 0.000000 -2.044867 -2.172909 3.569450 -3.824689 11.949143 2.189546 -0.685813 13.391871 -3.947704 0.000000 0.000000 0.000000 -2.246718 -1.864669 3.600950 1.433313 3.321017 -9.865745 1.640933 -3.174380 -0.954069 3.461512 -11.770123 -58.824062 4.115242 -16.625112 -6.773779 0.000000 0.000000 0.000000 -2.141936 -2.174584 2.915483 2.140850 -1.821357 17.067266 -3.792549 -1.353372 -0.598906 14.831995 29.977331 45.683133 15.176045 23.173293 -5.211246 0.000000 0.000000 0.000000 
-0.393878 31.822586 3.016825 0.000000 0.000000 0.000000 175.414612 -46.533447 176.376849 7.643447 15.474652 23.571843 36.656966 21.062825 1.186078 -9.695934 3.877587 -37.110084 -11.059236 6.048965 -6.642381 0.000000 0.000000 0.000000 175.595339 -45.567050 176.176369 -24.415705 -22.979009 -11.601055 31.290316 -7.199539 -0.743240 -5.913420 3.416511 1.561718 -5.684473 -8.882632 3.785360 0.000000 0.000000 0.000000 176.394936 -47.929217 175.949539 12.469887 -2.620360 0.162622 -0.972912 -2.443131 3.182722 0.838967 0.087613 0.037158 0.000000 0.000000 0.000000 -2.172308 -2.384194 3.336541 -3.534879 9.040677 2.270252 -0.380287 8.672984 -3.026307 0.000000 0.000000 0.000000 -2.374282 -2.075092 3.440528 1.434095 3.191391 -9.874328 1.448399 -2.952855 -0.489206 4.948277 -11.455470 -59.604909 3.437209 -17.303398 -7.222949 0.000000 0.000000 0.000000 -2.307247 -2.379145 2.792978 2.114578 -1.972325 16.918498 -3.969876 -1.099375 -0.672380 14.372451 30.518125 45.756305 14.771947 23.064031 -4.905287 0.000000 0.000000 0.000000 
-0.392834 31.866446 1.938576 0.000000 0.000000 0.000000 176.570212 -43.156065 176.980214 6.058017 13.182280 24.222453 41.169976 20.022256 1.720974 -5.462381 1.358790 -33.590980 -14.213238 7.388707 -9.899106 0.000000 0.000000 0.000000 176.718727 -42.084945 176.729383 -23.198908 -22.827133 -7.974524 31.793588 -5.948168 -1.812613 -7.317517 3.361701 -0.542466 -5.736359 -8.794656 3.087133 0.000000 0.000000 0.000000 177.304881 -44.121127 176.374937 13.160858 -2.757796 0.325857 -1.276281 -2.498071 2.773270 0.677985 0.326080 0.058360 0.000000 0.000000 0.000000 -2.319394 -2.409697 2.869551 -3.040200 6.126228 2.701357 -0.014063 4.242390 -2.345064 0.000000 0.000000 0.000000 -2.522054 -2.106252 3.023141 1.439262 2.991433 -9.599624 1.220256 -2.526555 -0.203872 6.150251 -10.571209 -60.471975 2.979748 -17.661303 -7.779213 0.000000 0.000000 0.000000 -2.504354 -2.395806 2.438075 2.024601 -2.142436 16.893035 -3.931028 -0.915164 -0.738730 13.899922 30.896429 45.714425 14.492084 23.131604 -4.662443 0.000000 0.000000 0.000000 
-0.429727 32.035461 0.774667 0.000000 0.000000 0.000000 177.796887 -39.585584 177.394356 4.154701 11.070904 23.686714 45.281641 19.889432 2.263520 -2.822175 0.095004 -26.505184 -16.827723 8.683757 -13.277328 0.000000 0.000000 0.000000 177.833988 -38.509139 177.061016 -21.672037 -21.847711 -4.247976 32.024103 -4.236705 -2.852283 -8.485800 3.273681 -1.351728 -6.586989 -8.731230 2.053715 0.000000 0.000000 0.000000 178.232817 -40.343933 176.786783 13.741902 -2.506487 0.575480 -1.577321 -2.359967 2.233986 0.477202 0.448936 0.098985 0.000000 0.000000 0.000000 -2.470502 -2.231508 2.258243 -2.350834 3.326299 3.315332 0.389033 0.242932 -1.894520 0.000000 0.000000 0.000000 -2.650900 -1.948234 2.459780 1.455392 2.818043 -9.201875 0.975822 -2.001773 0.068470 7.131268 -9.130373 -61.454169 2.821075 -17.461484 -8.360254 0.000000 0.000000 0.000000 -2.688695 -2.207496 1.950018 1.901159 -2.395808 16.870062 -3.761906 -0.912730 -0.792712 13.510061 31.322203 45.363480 14.372784 23.247257 -4.527880 0.000000 0.000000 0.000000 
-0.543947 32.290428 -0.498375 0.000000 0.000000 0.000000 178.954262 -35.882061 177.611652 1.731982 9.466796 22.239212 49.491653 19.935639 2.269894 -2.177713 -0.322245 -17.888028 -18.161669 9.534322 -15.866628 0.000000 0.000000 0.000000 178.784436 -34.815318 177.145669 -19.891381 -20.051581 -0.667298 31.889286 -2.047130 -3.718278 -9.648253 3.288428 -0.875031 -8.004254 -8.623814 0.825643 0.000000 0.000000 0.000000 179.080115 -36.626493 177.166706 14.098638 -1.937927 0.841382 -1.815171 -2.040836 1.676713 0.261543 0.386270 0.090824 0.000000 0.000000 0.000000 -2.616999 -1.879990 1.632689 -1.532888 0.748631 3.939672 0.824612 -3.208336 -1.684632 0.000000 0.000000 0.000000 -2.735418 -1.619818 1.872701 1.475385 2.710241 -8.808307 0.883250 -1.565319 0.330620 7.961378 -7.360845 -62.549377 3.042187 -16.809495 -8.857349 0.000000 0.000000 0.000000 -2.828656 -1.840467 1.441605 1.780574 -2.817319 16.831864 -3.574504 -0.967640 -0.781678 13.289694 31.806545 44.677227 14.357165 23.177660 -4.469117 0.000000 0.000000 0.000000 
-0.714973 32.586651 -1.883567 0.000000 0.000000 0.000000 179.768311 -31.996602 177.655160 -1.603810 8.531264 20.250894 53.876238 19.033705 1.710217 -3.201443 -0.985659 -10.555755 -19.112490 9.669528 -16.393514 0.000000 0.000000 0.000000 179.413674 -31.026141 177.095576 -17.820343 -17.582317 2.634394 31.214856 0.226175 -4.234591 -11.157672 3.291427 -0.158241 -8.651522 -8.427664 -0.197827 0.000000 0.000000 0.000000 179.688863 -33.001978 177.425543 14.186905 -1.188731 1.013781 -1.968295 -1.584327 1.204151 0.252489 0.331517 0.045268 0.000000 0.000000 0.000000 -2.725012 -1.411466 1.084901 -0.666573 -1.522675 4.411214 1.252931 -6.033128 -1.640709 0.000000 0.000000 0.000000 -2.791901 -1.174550 1.358619 1.483003 2.739712 -8.522281 0.929835 -1.224202 0.738747 8.858011 -5.491557 -63.702873 3.631679 -15.991916 -9.155205 0.000000 0.000000 0.000000 -2.896040 -1.352834 0.999593 1.718850 -3.422784 16.752735 -3.484900 -1.005953 -0.747077 13.340709 32.274782 43.853725 14.384206 22.792806 -4.419530 0.000000 0.000000 0.000000 
-0.928729 32.860130 -3.349493 0.000000 0.000000 0.000000 -179.862281 -28.232025 177.621200 -5.632566 8.045610 17.603585 57.515876 16.889692 1.019317 -5.009320 -2.358683 -5.566119 -20.702635 9.003576 -14.254980 0.000000 0.000000 0.000000 179.631694 -27.069937 176.965912 -15.664330 -14.551450 5.415287 29.940168 2.369777 -4.356485 -13.190449 3.128492 0.060526 -7.725309 -8.165637 -0.805927 0.000000 0.000000 0.000000 -179.974610 -29.489454 177.613578 13.960925 -0.430416 1.006010 -2.029453 -1.061024 0.880252 0.303860 0.425905 0.107532 0.000000 0.000000 0.000000 -2.765498 -0.897551 0.686305 0.136712 -3.424179 4.652415 1.657123 -8.118384 -1.714582 0.000000 0.000000 0.000000 -2.809262 -0.679877 0.984879 1.475161 2.924088 -8.351675 1.090875 -0.976375 1.145048 9.799047 -3.816133 -64.890964 4.513354 -15.308175 -9.214087 0.000000 0.000000 0.000000 -2.899505 -0.817958 0.685653 1.726916 -4.192888 16.668049 -3.438918 -0.840969 -0.706352 13.630287 32.474657 43.227092 14.416610 22.226129 -4.338213 0.000000 0.000000 0.000000 
